<svg width="32" height="32" viewBox="0 0 32 32" fill="none" xmlns="http://www.w3.org/2000/svg">
<path fill-rule="evenodd" clip-rule="evenodd" d="M16 32C24.8366 32 32 24.8366 32 16C32 7.16344 24.8366 0 16 0C7.16344 0 0 7.16344 0 16C0 24.8366 7.16344 32 16 32Z" fill="#42ABE9"/>
<mask id="mask0_1574_30818" style="mask-type:luminance" maskUnits="userSpaceOnUse" x="0" y="0" width="32" height="32">
<path fill-rule="evenodd" clip-rule="evenodd" d="M16 32C24.8366 32 32 24.8366 32 16C32 7.16344 24.8366 0 16 0C7.16344 0 0 7.16344 0 16C0 24.8366 7.16344 32 16 32Z" fill="white"/>
</mask>
<g mask="url(#mask0_1574_30818)">
<path fill-rule="evenodd" clip-rule="evenodd" d="M4 15.8504L7.27249 18.2711L4.61504 20.7842L7.09226 22.972L5.18192 25.001L7.62384 26.9665L7.51584 13.4663L4 15.8504Z" fill="#0D1013"/>
<mask id="mask1_1574_30818" style="mask-type:luminance" maskUnits="userSpaceOnUse" x="7" y="12" width="33" height="34">
<path fill-rule="evenodd" clip-rule="evenodd" d="M7.28021 13.922C7.28021 14.5796 7.46395 34.7637 7.53221 36.1032C7.60047 37.4427 7.53431 45.1101 13.4706 45.6179C19.4064 46.1259 39.1641 45.6094 39.1641 45.6094C39.1641 45.6094 40.0056 45.6179 39.7235 45.2021C39.4719 44.8317 22.335 39.983 22.335 39.983C22.335 39.983 21.7401 36.4265 18.6971 35.5029L20.9953 25.3373L7.78397 12.927C7.78397 12.927 7.28021 13.2644 7.28021 13.922Z" fill="white"/>
</mask>
<g mask="url(#mask1_1574_30818)">
<path fill-rule="evenodd" clip-rule="evenodd" d="M7.78411 12.927C7.78411 12.927 7.28011 13.2644 7.28011 13.922C7.28011 14.5796 7.46385 34.7639 7.53211 36.1032C7.60037 37.4427 7.53445 45.1101 13.4705 45.6181C19.4063 46.1261 39.1642 45.6094 39.1642 45.6094C39.1642 45.6094 40.0591 45.6334 39.7236 45.2024C39.4487 44.8491 22.3351 39.983 22.3351 39.983C22.3351 39.983 21.7402 36.4267 18.6973 35.5029L20.9622 25.48L7.78411 12.927Z" fill="#FF5767"/>
</g>
<mask id="mask2_1574_30818" style="mask-type:luminance" maskUnits="userSpaceOnUse" x="12" y="23" width="27" height="22">
<path fill-rule="evenodd" clip-rule="evenodd" d="M38.6802 44.7962C34.9237 43.5449 22.3349 39.9831 22.3349 39.9831C22.3349 39.9831 21.7399 36.4266 18.697 35.503L20.9952 25.3374L18.6231 23.1091L12.8871 23.1091V44.7962H38.6802V44.7962Z" fill="white"/>
</mask>
<g mask="url(#mask2_1574_30818)">
<path fill-rule="evenodd" clip-rule="evenodd" d="M12.8871 23.1091C12.8871 23.3401 13.2679 38.9516 13.2679 38.9516C13.2679 38.9516 13.1758 43.0669 16.8768 43.1799C20.8336 43.3007 34.0117 44.9397 39.274 44.7861L35.842 40.3834L22.6513 24.8182L12.8871 23.1091Z" fill="#FFC500"/>
</g>
<path fill-rule="evenodd" clip-rule="evenodd" d="M21.8204 25.376C23.7765 25.4453 25.9262 25.2495 26.0871 25.1957C26.088 25.1955 26.5782 22.5943 26.5242 18.1687C26.4702 13.7476 21.9856 13.2743 15.5365 13.1315C13.07 13.077 7.51855 12.9192 7.51855 12.9192C7.51855 12.9192 8.21471 16.4177 9.51889 19.7296C11.587 24.981 20.2434 25.32 21.8204 25.376" fill="#FF5767"/>
<path fill-rule="evenodd" clip-rule="evenodd" d="M24.9102 12.4869C25.861 12.7993 26.2507 14.0701 25.7806 15.3254C25.3105 16.5807 24.1587 17.3452 23.208 17.0328C22.2572 16.7204 21.8675 15.4495 22.3376 14.1942C22.8077 12.939 23.9595 12.1745 24.9102 12.4869" fill="#FF5767"/>
<path fill-rule="evenodd" clip-rule="evenodd" d="M24.8076 13.6605C25.1346 13.8505 25.1776 14.4385 24.9037 14.9738C24.6297 15.5092 24.1425 15.7893 23.8155 15.5994C23.4885 15.4097 23.4454 14.8217 23.7194 14.2863C23.9934 13.7509 24.4806 13.4706 24.8076 13.6605" fill="#0D1013"/>
<path fill-rule="evenodd" clip-rule="evenodd" d="M28.0303 14.7387C28.7234 15.292 28.5943 16.4769 27.742 17.3856C26.8897 18.2945 25.6367 18.5826 24.9436 18.0293C24.2505 17.4762 24.3795 16.291 25.2318 15.3823C26.0841 14.4737 27.3371 14.1856 28.0303 14.7387" fill="#FF5767"/>
<path fill-rule="evenodd" clip-rule="evenodd" d="M27.1792 16.6011C26.8024 16.9519 26.2991 17.0397 26.0551 16.7971C25.811 16.5546 25.9188 16.0735 26.2956 15.7226C26.6724 15.3717 27.1757 15.284 27.4198 15.5265C27.6636 15.7691 27.5561 16.2502 27.1792 16.6011Z" fill="#0D1013"/>
<path fill-rule="evenodd" clip-rule="evenodd" d="M9.87168 4.24405C10.4764 4.19545 10.9281 4.36935 11.0206 4.7608C11.1132 5.15225 10.6882 5.53921 10.3256 5.64704C9.96308 5.75487 9.06775 6.56255 8.83726 6.75698C8.60677 6.9514 8.13713 6.92285 7.92627 6.71214C7.71565 6.5012 7.76544 6.07978 7.9057 5.79074C8.24981 5.08099 8.97074 4.31649 9.87168 4.24405" fill="#0D1013"/>
<path fill-rule="evenodd" clip-rule="evenodd" d="M16.3678 4.23757C15.7589 4.21681 15.3138 4.41336 15.2392 4.8126C15.1647 5.2116 15.6093 5.58205 15.9782 5.67383C16.347 5.76562 17.2835 6.53837 17.5238 6.72383C17.7641 6.90929 18.2342 6.85833 18.4357 6.63606C18.6373 6.41355 18.5674 5.99072 18.4133 5.70569C18.0346 5.00608 17.2753 4.26848 16.3678 4.23757" fill="#0D1013"/>
<path fill-rule="evenodd" clip-rule="evenodd" d="M11.1785 7.4857C13.324 7.60155 14.9702 9.44861 14.8557 11.6107C14.7409 13.773 12.9086 15.432 10.7634 15.3161C8.61762 15.2 6.97144 13.3532 7.08622 11.1909C7.20077 9.02861 9.03303 7.36984 11.1785 7.4857" fill="#6F568E"/>
<path fill-rule="evenodd" clip-rule="evenodd" d="M17.0233 7.44908C19.1688 7.56493 20.8152 9.41222 20.7004 11.5752C20.5856 13.738 18.7534 15.3972 16.6078 15.2814C14.4623 15.1655 12.8162 13.3182 12.9309 11.1552C13.0455 8.99246 14.8777 7.33322 17.0233 7.44908" fill="#6F568E"/>
<path fill-rule="evenodd" clip-rule="evenodd" d="M11.1034 8.88332C12.4824 8.95788 13.5407 10.1454 13.467 11.5357C13.3932 12.9262 12.2155 13.9927 10.8365 13.9184C9.45724 13.8438 8.39922 12.6562 8.47285 11.2658C8.54649 9.87551 9.72444 8.80876 11.1034 8.88332" fill="white"/>
<path fill-rule="evenodd" clip-rule="evenodd" d="M11.033 10.2124C11.6843 10.2476 12.1841 10.8082 12.1492 11.4644C12.1144 12.1206 11.5583 12.6241 10.907 12.589C10.2557 12.5538 9.75616 11.9932 9.79076 11.337C9.82559 10.6808 10.3817 10.1773 11.033 10.2124" fill="#0D1013"/>
<path fill-rule="evenodd" clip-rule="evenodd" d="M16.9501 8.84865C18.3291 8.92321 19.3873 10.1108 19.3135 11.501C19.2398 12.8915 18.0621 13.958 16.6829 13.8835C15.3039 13.8091 14.2459 12.6216 14.3195 11.2311C14.3931 9.84084 15.5711 8.77409 16.9501 8.84865" fill="white"/>
<path fill-rule="evenodd" clip-rule="evenodd" d="M16.8797 10.178C17.531 10.2132 18.0308 10.7738 17.9959 11.43C17.9611 12.0862 17.405 12.5897 16.7537 12.5545C16.1024 12.5194 15.6026 11.9588 15.6375 11.3026C15.6723 10.6464 16.2284 10.1428 16.8797 10.178" fill="#0D1013"/>
<path fill-rule="evenodd" clip-rule="evenodd" d="M19.5986 25.1795C16.3462 24.6311 14.5469 23.9034 13.7638 23.5186C12.511 22.9027 11.6295 22.0257 11.1435 20.9115C10.9212 20.4021 10.802 19.6692 10.8008 19.6619C10.7807 19.5359 10.6631 19.4505 10.5385 19.4708C10.4137 19.491 10.329 19.6097 10.3491 19.7355C10.3543 19.7678 10.4787 20.5333 10.7248 21.0977C10.841 21.3643 10.9777 21.6184 11.1346 21.8596L11.0324 24.4638L13.5634 23.9338L14.4646 26.2304L16.9152 25.0931L18.1939 27.2467L19.916 25.6945C20.4467 25.7667 20.8915 25.7972 20.8915 25.7972C20.8915 25.7972 20.9231 25.6622 20.9467 25.5593C20.9689 25.4621 20.9956 25.3373 20.9956 25.3373C20.9956 25.3373 20.3621 25.308 19.5986 25.1795" fill="white"/>
</g>
<style>@media (prefers-color-scheme: light) { :root { filter: none; } }
</style></svg>